# xmcd
# 
# Track frame offsets:
#     150
#     14720
#     29965
#     40797
#     54992
#     68692
#     82600
#     97287
#     113582
#     128222
# 
# Disc length: 1923
# 
# Revision: 8
# Processed by: cddbd v1.5.2PL0 Copyright (c) Steve Scherf et al.
# Submitted via: BonkEnc v1.0.6
# 
DISCID=8107810a
DTITLE=Tracy Byrd - I'm From The Country
DYEAR=1998
DGENRE=Country
TTITLE0=Gettin' Me Over Mountains
TTITLE1=I Wanna Feel That Way Again
TTITLE2=I Still Love The Night Life
TTITLE3=For Me It's You
TTITLE4=I've Got What It Takes
TTITLE5=On Again, Off Again
TTITLE6=Walkin' The Line
TTITLE7=Back To Texas
TTITLE8=Old One Better
TTITLE9=I'm From The Country
EXTD=
EXTT0=
EXTT1=
EXTT2=
EXTT3=
EXTT4=
EXTT5=
EXTT6=
EXTT7=
EXTT8=
EXTT9=
PLAYORDER=
